<?xml version="1.0" encoding="UTF-8" standalone="no"?>
<svg
   xmlns:dc="http://purl.org/dc/elements/1.1/"
   xmlns:cc="http://creativecommons.org/ns#"
   xmlns:rdf="http://www.w3.org/1999/02/22-rdf-syntax-ns#"
   xmlns:svg="http://www.w3.org/2000/svg"
   xmlns="http://www.w3.org/2000/svg"
   xmlns:sodipodi="http://sodipodi.sourceforge.net/DTD/sodipodi-0.dtd"
   xmlns:inkscape="http://www.inkscape.org/namespaces/inkscape"
   height="496pt"
   viewBox="0 0 496 496"
   width="496pt"
   version="1.1"
   id="svg28"
   sodipodi:docname="search2.svg"
   inkscape:version="0.92.1 r15371">
  <metadata
     id="metadata34">
    <rdf:RDF>
      <cc:Work
         rdf:about="">
        <dc:format>image/svg+xml</dc:format>
        <dc:type
           rdf:resource="http://purl.org/dc/dcmitype/StillImage" />
      </cc:Work>
    </rdf:RDF>
  </metadata>
  <defs
     id="defs32" />
  <sodipodi:namedview
     pagecolor="#ffffff"
     bordercolor="#666666"
     borderopacity="1"
     objecttolerance="10"
     gridtolerance="10"
     guidetolerance="10"
     inkscape:pageopacity="0"
     inkscape:pageshadow="2"
     inkscape:window-width="1920"
     inkscape:window-height="1008"
     id="namedview30"
     showgrid="false"
     showguides="true"
     inkscape:guide-bbox="true"
     inkscape:zoom="0.35685484"
     inkscape:cx="-1411.3483"
     inkscape:cy="95.522236"
     inkscape:window-x="0"
     inkscape:window-y="44"
     inkscape:window-maximized="0"
     inkscape:current-layer="svg28">
    <sodipodi:guide
       position="-671.49155,92.211867"
       orientation="0,1"
       id="guide4343"
       inkscape:locked="false" />
    <sodipodi:guide
       position="-694.8729,-41.771188"
       orientation="0,1"
       id="guide4345"
       inkscape:locked="false" />
    <sodipodi:guide
       position="-718.30512,23.254255"
       orientation="1,0"
       id="guide4347"
       inkscape:locked="false" />
    <sodipodi:guide
       position="-638.65256,-7.0932206"
       orientation="1,0"
       id="guide4349"
       inkscape:locked="false" />
    <sodipodi:guide
       position="-702.75426,-1.5762712"
       orientation="1,0"
       id="guide4351"
       inkscape:locked="false" />
    <sodipodi:guide
       position="-653.88985,-34.415255"
       orientation="1,0"
       id="guide4353"
       inkscape:locked="false" />
  </sodipodi:namedview>
  <g
     id="g4357"
     transform="rotate(-26.175638,142.96233,-1069.5699)"
     style="fill:#5588ff;fill-opacity:1">
    <path
       sodipodi:nodetypes="sccccccccsscccccsssss"
       inkscape:connector-curvature="0"
       id="path4"
       d="m -317.17729,-76.211848 c -94.65625,0 -172.0625,75.1210963 -175.8164,168.871096 -1.77254,44.192062 14.69367,82.532672 31.8164,108.136722 24.4961,34.82422 61.27344,60.38281 104,70.35156 0,31.66505 0,56.7369 0,68.64062 v 80 h 80 v -80 -68.64062 c 77.83204,-18.16797 136,-88.07031 136,-171.359382 0,-97.0468697 -78.95312,-175.999996 -176,-175.999996 z m 24,479.999998 h -48 l -0.44914,-132.95761 h 48.44914 z m -24,-144 c -88.22265,0 -160,-71.77734 -160,-160.000002 0,-88.22265 71.77735,-159.999996 160,-159.999996 88.22266,0 160,71.777346 160,159.999996 0,88.222662 -71.77734,160.000002 -160,160.000002 z"
       style="fill:#5588ff;fill-opacity:1" />
    <path
       inkscape:connector-curvature="0"
       id="path6"
       d="m -317.05704,-45.278384 c -35.17578,0 -69.11328,12.953122 -95.55078,36.4726517 l 10.6289,11.95313 c 23.51563,-20.9140597 53.67579,-32.4257797 84.92188,-32.4257797 70.57422,0 128,57.42578 128,128 0,32.335942 -12.15234,61.824222 -32,84.375002 v -33.64063 c 0,-14.71093 -9.96875,-27.47656 -24.23828,-31.03906 l -39.76172,-9.94141 V 94.393488 c 9.79297,-8.79297 16,-21.5039 16,-35.67968 v -24 c 0,-26.4726603 -21.52734,-48 -48,-48 -26.47266,0 -48,21.5273397 -48,48 v 24 c 0,14.16796 6.20703,26.8789 16,35.67968 v 14.082032 l -39.76172,9.94141 c -14.26953,3.5625 -24.23828,16.32813 -24.23828,31.03906 v 33.64063 c -19.84766,-22.55078 -32,-52.03906 -32,-84.375002 0,-31.2461 11.51172,-61.40625 32.42578,-84.92188 L -424.58438,3.1708377 c -23.51954,26.4375003 -36.47266,60.3750003 -36.47266,95.5507803 0,79.398442 64.60156,144.000002 144,144.000002 79.39844,0 144,-64.60156 144,-144.000002 0,-79.39844 -64.60156,-144.000002 -144,-144.000002 z m -32,80.000002 c 0,-17.64844 14.35156,-32.0000003 32,-32.0000003 17.64844,0 32,14.3515603 32,32.0000003 v 24 c 0,17.64844 -14.35156,32 -32,32 -17.64844,0 -32,-14.35156 -32,-32 z m -48,163.761722 v -49.02735 c 0,-7.35156 4.98437,-13.73437 12.12109,-15.51953 l 51.87891,-12.96875 v -17.04687 c 5.01562,1.78515 10.38281,2.80078 16,2.80078 5.61719,0 10.98437,-1.02344 16,-2.80078 v 17.04687 l 51.87891,12.97656 c 7.13671,1.77735 12.12109,8.16016 12.12109,15.51172 v 49.02735 c -21.9375,17.62109 -49.73438,28.23828 -80,28.23828 -30.26563,0 -58.0625,-10.61719 -80,-28.23828 z m 0,0"
       style="fill:#5588ff;fill-opacity:1" />
  </g>
</svg>
