<?xml version="1.0" encoding="UTF-8" standalone="no"?>
<svg
   xmlns:dc="http://purl.org/dc/elements/1.1/"
   xmlns:cc="http://creativecommons.org/ns#"
   xmlns:rdf="http://www.w3.org/1999/02/22-rdf-syntax-ns#"
   xmlns:svg="http://www.w3.org/2000/svg"
   xmlns="http://www.w3.org/2000/svg"
   xmlns:sodipodi="http://sodipodi.sourceforge.net/DTD/sodipodi-0.dtd"
   xmlns:inkscape="http://www.inkscape.org/namespaces/inkscape"
   version="1.1"
   width="24"
   height="24"
   viewBox="0 0 24 24"
   id="svg4"
   sodipodi:docname="hourglass2.svg"
   inkscape:version="0.92.1 r15371">
  <metadata
     id="metadata10">
    <rdf:RDF>
      <cc:Work
         rdf:about="">
        <dc:format>image/svg+xml</dc:format>
        <dc:type
           rdf:resource="http://purl.org/dc/dcmitype/StillImage" />
        <dc:title />
      </cc:Work>
    </rdf:RDF>
  </metadata>
  <defs
     id="defs8" />
  <sodipodi:namedview
     pagecolor="#ffffff"
     bordercolor="#666666"
     borderopacity="1"
     objecttolerance="10"
     gridtolerance="10"
     guidetolerance="10"
     inkscape:pageopacity="0"
     inkscape:pageshadow="2"
     inkscape:window-width="1920"
     inkscape:window-height="1008"
     id="namedview6"
     showgrid="false"
     inkscape:zoom="9.8333333"
     inkscape:cx="23.999999"
     inkscape:cy="12"
     inkscape:window-x="0"
     inkscape:window-y="44"
     inkscape:window-maximized="0"
     inkscape:current-layer="svg4" />
  <path
     id="path3840"
     inkscape:connector-curvature="0"
     d="M 3.6642325,2.1061974 V 2.9919332 C 3.6133173,9.7835898 2.7258418,7.4970584 7.4355061,12.21599 2.6400959,16.941542 3.6642325,14.731979 3.6642325,21.440061 v 0.88572 h 0.8857396 14.7668039 0.885717 v -0.88572 c 0.05041,-6.789937 0.943243,-4.516463 -3.764351,-9.224071 4.792412,-4.711804 3.764351,-2.5203892 3.764351,-9.2240568 V 2.1061974 H 19.316776 4.5499721 Z M 5.4356898,3.8776526 H 18.431022 c 0.241912,4.9947586 -0.309969,4.1366069 -3.881997,7.7086314 l -0.622775,0.629706 0.622775,0.629704 c 3.989275,3.944521 3.881997,2.58258 3.881997,7.708616 H 5.4356898 C 5.19307,15.559854 5.7490435,16.413777 9.3176778,12.838769 L 9.9404618,12.21599 9.3176778,11.593209 C 5.3310733,7.6447294 5.4356898,9.0041422 5.4356898,3.8776526 Z m 1.7991395,3.6398278 c 1.5296619,1.3074654 3.6746747,1.8869244 4.1241857,4.4770876 h 0.858058 c -0.03596,-2.3289932 2.585171,-3.180742 4.407901,-4.4770876 -3.612919,0.3894123 -5.086472,0.5983479 -9.3901447,0 z m 4.6639367,7.3972166 c -2.3593229,-0.01485 -4.7025095,1.194742 -4.6570143,3.674404 h 9.3901313 c 0.0014,-2.420184 -2.373781,-3.659525 -4.733117,-3.674404 z"
     style="stroke-width:0.01684965" />
</svg>
