<?xml version="1.0" encoding="UTF-8" standalone="no"?>
<!-- Created with Inkscape (http://www.inkscape.org/) -->

<svg
   xmlns:dc="http://purl.org/dc/elements/1.1/"
   xmlns:cc="http://creativecommons.org/ns#"
   xmlns:rdf="http://www.w3.org/1999/02/22-rdf-syntax-ns#"
   xmlns:svg="http://www.w3.org/2000/svg"
   xmlns="http://www.w3.org/2000/svg"
   xmlns:sodipodi="http://sodipodi.sourceforge.net/DTD/sodipodi-0.dtd"
   xmlns:inkscape="http://www.inkscape.org/namespaces/inkscape"
   version="1.1"
   id="svg2"
   xml:space="preserve"
   width="24"
   height="24"
   viewBox="0 0 23.999999 23.999999"
   sodipodi:docname="lup.svg"
   inkscape:export-filename="/media/azzamsya/rhd/azzamsa-mg/machine-management-mg/machine-tmp-mg/downloads-tmp/Magnifying-glass-icons/LUPAS-01.eps.png"
   inkscape:export-xdpi="6.0629077"
   inkscape:export-ydpi="6.0629077"
   inkscape:version="0.92.1 r15371"><metadata
     id="metadata8"><rdf:RDF><cc:Work
         rdf:about=""><dc:format>image/svg+xml</dc:format><dc:type
           rdf:resource="http://purl.org/dc/dcmitype/StillImage" /><dc:title></dc:title></cc:Work></rdf:RDF></metadata><defs
     id="defs6"><clipPath
       clipPathUnits="userSpaceOnUse"
       id="clipPath76"><path
         d="M 5970,895.012 H 2040 c -154,0 -280,125.998 -280,279.998 v 3930 c 0,154 126,280 280,280 h 3930 c 154,0 280,-126 280,-280 v -3930 c 0,-154 -126,-279.998 -280,-279.998 z"
         id="path74"
         inkscape:connector-curvature="0" /></clipPath><clipPath
       clipPathUnits="userSpaceOnUse"
       id="clipPath1062"><path
         d="m 3600,5830.01 h -950 c -154,0 -280,126 -280,280 V 7060 c 0,154 126,280 280,280 h 950 c 154,0 280,-126 280,-280 v -949.99 c 0,-154 -126,-280 -280,-280 z"
         id="path1060"
         inkscape:connector-curvature="0" /></clipPath><clipPath
       clipPathUnits="userSpaceOnUse"
       id="clipPath2072"><path
         d="m 5350,5830.01 h -950 c -154,0 -280,126 -280,280 V 7060 c 0,154 126,280 280,280 h 950 c 154,0 280,-126 280,-280 v -949.99 c 0,-154 -126,-280 -280,-280 z"
         id="path2070"
         inkscape:connector-curvature="0" /></clipPath><clipPath
       clipPathUnits="userSpaceOnUse"
       id="clipPath3082"><path
         d="m 7100,5830.01 h -950 c -154,0 -280,126 -280,280 V 7060 c 0,154 126,280 280,280 h 950 c 154,0 280,-126 280,-280 v -949.99 c 0,-154 -126,-280 -280,-280 z"
         id="path3080"
         inkscape:connector-curvature="0" /></clipPath><clipPath
       clipPathUnits="userSpaceOnUse"
       id="clipPath4092"><path
         d="M 1850,5830.01 H 900 c -154,0 -280,126 -280,280 V 7060 c 0,154 126,280 280,280 h 950 c 154,0 280,-126 280,-280 v -949.99 c 0,-154 -126,-280 -280,-280 z"
         id="path4090"
         inkscape:connector-curvature="0" /></clipPath></defs><sodipodi:namedview
     pagecolor="#ffffff"
     bordercolor="#666666"
     borderopacity="1"
     objecttolerance="10"
     gridtolerance="10"
     guidetolerance="10"
     inkscape:pageopacity="0"
     inkscape:pageshadow="2"
     inkscape:window-width="1920"
     inkscape:window-height="986"
     id="namedview4"
     showgrid="false"
     showguides="true"
     inkscape:guide-bbox="true"
     inkscape:zoom="26.489998"
     inkscape:cx="6.7019432"
     inkscape:cy="9.8662284"
     inkscape:window-x="0"
     inkscape:window-y="66"
     inkscape:window-maximized="0"
     inkscape:current-layer="g10"
     units="px"><sodipodi:guide
       position="664.40168,176.36845"
       orientation="1,0"
       id="guide13100"
       inkscape:locked="false" /><sodipodi:guide
       position="335.82485,819.02607"
       orientation="1,0"
       id="guide13102"
       inkscape:locked="false" /><sodipodi:guide
       position="454.20915,403.47302"
       orientation="0,1"
       id="guide13104"
       inkscape:locked="false" /><sodipodi:guide
       position="219.85656,712.7218"
       orientation="0,1"
       id="guide13106"
       inkscape:locked="false" /></sodipodi:namedview><g
     id="g10"
     inkscape:groupmode="layer"
     inkscape:label="ink_ext_XXXXXX"
     transform="matrix(1.3333333,0,0,-1.3333333,0,24.000047)"><g
       id="g4519"
       transform="matrix(0.06554294,0,0,0.06554294,-15.50727,-18.506141)"><g
         inkscape:export-ydpi="6.6765003"
         inkscape:export-xdpi="6.6765003"
         id="g13211"><ellipse
           style="opacity:1;fill:#5588ff;fill-opacity:1;stroke:none;stroke-width:12.21116543;stroke-linecap:round;stroke-miterlimit:4;stroke-dasharray:none;stroke-dashoffset:0;stroke-opacity:1"
           id="path13146"
           cx="374.28088"
           cy="-421.58578"
           transform="scale(1,-1)"
           rx="128.65233"
           ry="129.40912" /><path
           inkscape:connector-curvature="0"
           id="path1048"
           style="fill:#ffffff;fill-opacity:1;fill-rule:nonzero;stroke:none;stroke-width:0.06253369"
           d="m 455.77741,363.75813 -29.69162,29.62534 c -0.14945,0.15008 -0.3258,0.25952 -0.47901,0.36645 -2.66831,-4.10221 -5.85878,-8.00431 -9.45822,-11.60063 -3.59631,-3.60006 -7.50217,-6.79366 -11.6469,-9.4651 0.14633,-0.1532 0.25576,-0.33268 0.40585,-0.479 l 29.63159,-29.6885 c 5.86566,-5.85503 15.39016,-5.84878 21.23519,0 5.8519,5.8519 5.85503,15.38329 0.003,21.24144" /><path
           inkscape:connector-curvature="0"
           id="path1050"
           style="fill:#ffffff;fill-opacity:1;fill-rule:nonzero;stroke:none;stroke-width:0.06253369"
           d="m 326.78041,399.07904 c -19.97076,19.97138 -19.9645,52.4839 0.003,72.43528 19.97076,19.96763 52.46389,19.96763 72.4284,0.01 19.95762,-19.96138 19.95075,-52.43763 0,-72.4384 -19.96764,-19.9076 -52.45764,-19.97764 -72.43153,-0.007 z m 85.13337,85.16338 c -26.97391,26.96703 -70.85505,26.96703 -97.83208,-0.007 -27.00393,-26.96703 -27.00706,-70.88069 -0.02,-97.85835 26.9908,-26.96703 70.87819,-26.96703 97.8521,0.004 26.97391,26.97703 26.97016,70.89132 0,97.86147" /><path
           inkscape:connector-curvature="0"
           id="path1052"
           style="fill:#ffffff;fill-opacity:1;fill-rule:nonzero;stroke:none;stroke-width:0.06253369"
           d="m 340.99932,429.73243 c -1.46704,6.02825 -7.50904,14.39213 -12.59241,11.72694 -4.02842,-2.05548 -2.89406,-11.48368 -0.99428,-17.05981 8.48957,-25.35054 39.36621,-30.7128 42.57669,-27.50607 3.1567,3.15732 -23.17499,8.98234 -28.99,32.83894" /></g></g></g></svg>