<?xml version="1.0" encoding="UTF-8" standalone="no"?>
<svg
   xmlns:dc="http://purl.org/dc/elements/1.1/"
   xmlns:cc="http://creativecommons.org/ns#"
   xmlns:rdf="http://www.w3.org/1999/02/22-rdf-syntax-ns#"
   xmlns:svg="http://www.w3.org/2000/svg"
   xmlns="http://www.w3.org/2000/svg"
   viewBox="0 0 73.626251 71.363747"
   height="71.363747"
   width="73.626251"
   xml:space="preserve"
   version="1.1"
   id="svg2"><metadata
     id="metadata8"><rdf:RDF><cc:Work
         rdf:about=""><dc:format>image/svg+xml</dc:format><dc:type
           rdf:resource="http://purl.org/dc/dcmitype/StillImage" /></cc:Work></rdf:RDF></metadata><defs
     id="defs6"><clipPath
       id="clipPath20"
       clipPathUnits="userSpaceOnUse"><path
         id="path22"
         d="m 0,0 58.901,0 0,57.091 L 0,57.091 0,0 Z" /></clipPath><clipPath
       id="clipPath54"
       clipPathUnits="userSpaceOnUse"><path
         id="path56"
         d="M 0,0 28.3468,0 C 28.3468,-15.6557 15.6557,-28.3468 0,-28.3468 L 0,0 -28.3468,0 c 0,15.6557 12.6911,28.3468 28.3468,28.3468 L 0,0 Z" /></clipPath></defs><g
     transform="matrix(1.25,0,0,-1.25,-0.07625,71.4375)"
     id="g10"><g
       transform="scale(1.00206,1.00206)"
       id="g12"><g
         id="g14"><g
           id="g16"><g
             clip-path="url(#clipPath20)"
             id="g18"><g
               transform="translate(29.45,28.546)"
               id="g24"><g
                 id="g26"><g
                   id="g28"><g
                     id="g30"><path
                       id="path32"
                       style="fill:#000000;fill-opacity:1;fill-rule:nonzero;stroke:#000000;stroke-width:0.3985;stroke-linecap:butt;stroke-linejoin:miter;stroke-miterlimit:10;stroke-dasharray:none;stroke-opacity:1"
                       d="M 28.3468,0 C 28.3468,15.6557 15.6557,28.3468 0,28.3468 -15.6557,28.3468 -28.3468,15.6557 -28.3468,0 c 0,-15.6557 12.6911,-28.3468 28.3468,-28.3468 15.6557,0 28.3468,12.6911 28.3468,28.3468 z" /></g><g
                     id="g34"><g
                       id="g36" /><g
                       transform="translate(-26.129,-8.607)"
                       id="g38"><g
                         id="g40"><g
                           transform="translate(-3.321,-19.939)"
                           id="g42"><text
                             id="text44"
                             style="font-variant:normal;font-weight:normal;font-size:24.78709984px;font-family:CMSSBX10;-inkscape-font-specification:CMSSBX10;writing-mode:lr-tb;fill:#fff200;fill-opacity:1;fill-rule:nonzero;stroke:none"
                             transform="matrix(1,0,0,-1,3.321,19.939)"><tspan
                               id="tspan46"
                               y="0"
                               x="0 17.420374 37.111248">PDF</tspan></text>
<g
                             transform="translate(3.321,19.939)"
                             id="g48" /></g></g><g
                         transform="translate(26.129,8.607)"
                         id="g50" /></g></g><g
                     clip-path="url(#clipPath54)"
                     id="g52"><g
                       id="g58"><path
                         id="path60"
                         style="fill:#fff200;fill-opacity:1;fill-rule:nonzero;stroke:#000000;stroke-width:0.3985;stroke-linecap:butt;stroke-linejoin:miter;stroke-miterlimit:10;stroke-dasharray:none;stroke-opacity:1"
                         d="M 28.3468,0 C 28.3468,15.6557 15.6557,28.3468 0,28.3468 -15.6557,28.3468 -28.3468,15.6557 -28.3468,0 c 0,-15.6557 12.6911,-28.3468 28.3468,-28.3468 15.6557,0 28.3468,12.6911 28.3468,28.3468 z" /></g><g
                       id="g62"><g
                         id="g64" /><g
                         transform="translate(-26.129,-8.607)"
                         id="g66"><g
                           id="g68"><g
                             transform="translate(-3.321,-19.939)"
                             id="g70"><text
                               id="text72"
                               style="font-variant:normal;font-weight:normal;font-size:24.78709984px;font-family:CMSSBX10;-inkscape-font-specification:CMSSBX10;writing-mode:lr-tb;fill:#000000;fill-opacity:1;fill-rule:nonzero;stroke:none"
                               transform="matrix(1,0,0,-1,3.321,19.939)"><tspan
                                 id="tspan74"
                                 y="0"
                                 x="0 17.420374 37.111248">PDF</tspan></text>
<g
                               transform="translate(3.321,19.939)"
                               id="g76" /></g></g><g
                           transform="translate(26.129,8.607)"
                           id="g78" /></g></g></g></g></g></g></g></g></g></g></g></svg>